<?xml version="1.0" encoding="UTF-8"?>
<svg id="Calque_1" data-name="Calque 1" xmlns="http://www.w3.org/2000/svg" viewBox="0 0 30 30">
  <defs>
    <style>
      .cls-1 {
        fill: none;
        stroke: #fff;
        stroke-linecap: round;
        stroke-linejoin: round;
        stroke-width: .85px;
      }
    </style>
  </defs>
  <polyline class="cls-1" points="16.62 10.55 15 12.17 13.38 10.55"/>
  <polyline class="cls-1" points="17.51 12.68 15 15.19 12.49 12.68"/>
  <path class="cls-1" d="M15,25.09c-1.86,0-3.24-.74-4.25-1.67-1.55-1.43-2.32-3.51-2.32-5.6v-5.45c0-1.29.29-2.58.92-3.71.89-1.59,2.58-3.36,5.65-3.36,3.07,0,4.76,1.78,5.65,3.36.64,1.13.92,2.42.92,3.71v5.45c0,2.1-.77,4.18-2.32,5.6-1.01.93-2.4,1.67-4.25,1.67"/>
</svg>