<?xml version="1.0" encoding="UTF-8"?>
<svg id="Calque_2" data-name="Calque 2" xmlns="http://www.w3.org/2000/svg" viewBox="0 0 116.19 104.15">
  <defs>
    <style>
      .cls-1 {
        fill: #fff;
      }
    </style>
  </defs>
  <g id="Calque_1-2" data-name="Calque 1">
    <path class="cls-1" d="M116.18,64.45c-.19-.47-.82-.74-1.08-1.2-.28-.39-.28-.99-.46-1.24-.2-.3-.63-.42-.97-.56-2.89-1.03-1.03-3.58-1.4-5.62-.09-1.37-1.1-2.59-2.45-3.24-1.08-.7-2.22-1.43-3.2-2.25-.42-.46-.03-1.03-.41-1.3-.24-.16-.74-.29-1.1-.37-1.86-.29-2.82-1.78-4.14-2.81-1.08-.95-1.99-2.09-3.43-2.55-1.43-.44-2.5-1.4-3.93-1.83-3.22-.83-6.5-.65-9.82-.8-2.52-.02-4.94-.36-7.39-.74-1.97-.24-4.01-.33-5.93-.77-3.47-.82-6.6-3-9.59-4.73-1.7-1.02-3.52-1.92-5.16-3.01-.93-.77-3.22-1.88-2.37-3.08.44-.62,1.14-1.18,1.64-1.77,1.38-1.54,2.13-2.86,2.63-4.75.86-3.35.99-6.84.8-10.22-.2-2.83-.28-5.74-.93-8.53-.2-.77-.42-1.61-1.02-2.21-1.28-1.12-3.34-1.02-4.97-.53-3.37,1.09-6.18,3.96-7.98,6.55-2.4,3.75-3.57,8.16-5.04,12.29-.36,1.17-.55,2.59-2.33,2.33-3.83-.45-8-.34-11.51,1.19-1.72.73-3.17,1.73-4.59,2.86-3.01,2.33-5.59,5.02-7.2,8.32-1.53,3.02-3.1,6.78-2.9,10.25.12,2.07,1.11,4,2.04,5.94.65,1.3,1.07,2.65,1.59,3.98.58,1.49,1.59,2.95,2.05,4.47.84,2.66-7.08,9.28-9.15,11.64-.85.98-1.69,1.8-2.66,2.74-1.46,1.78-3.4,3.45-3.77,5.69-.3,1.92,1.29,3.59,3.39,3.85,2.02.28,4.17-.48,6.12-.96,4.75-1.25,9.99-2.22,13.9-5.03,1.29-1.02,3.47-1.63,3.99-3.2.15-.29.33-.41.65-.23.88.6,1.6,1.65,2.35,2.26,2.85,2.35,5.81,4.71,8.5,7.11.96.84,1.85,1.75,2.83,2.58,1.25,1.08,2.77,1.87,4.26,2.77.93.58,2.04.94,3.03,1.33,3.01,1.52,5.11,4.15,7.84,6.07.95.7,2.03,1.11,3.07,1.72.66.39,1.29.88,1.91,1.3,1.19.79,2.64,1.46,4.03,2.09,1.17.42,2.17,1.09,3.31,1.51,1.08.36,2.28.35,3.39.63.79.17,1.54.52,2.32.55.52.03,1.05,0,1.57.11.48.09.95.31,1.4.5,1.69.76,3.59.8,5.31.2.96-.34,1.49-1.21,2.19-1.32.3-.06.63.02.93.07.87.21,1.79.12,2.72-.01.72-.02,1.83,0,2.21-.53.51-.91-1.03-1.22-1.69-1.38-1.53-.38-1.76-2.08-1.74-2.94,0-.09-.04-.36.1-.46.27-.19.56.32.68.51s.22.44.28.56c.26.62.71,1.11,1.36,1.28.95.22,2.01.43,2.95.27,1.11-.24,2.35-.09,3.09-.99.32-.36.52-.81.8-1.19.43-.66,1.65-1.38.7-1.64-.51-.13-1.11-.12-1.61-.31-.63-.23-1.26-.79-2.03-1.07-1.23-.43-2.34-.44-3.49.05-.05.02-.1.05-.14.08-.58.39-1,.53-1.28.22s-.18-.81.17-1.04c.13-.09.28-.17.42-.24.67-.3,1.34-.51,1.89-.88.42-.27.84-.29,1.35-.42.95-.23,2.23,0,2.85-.86.19-.22.32-.53.45-.81.17-.35.31-.82.7-.98.64-.21,1.4-.15,1.99-.42.62-.24,1.53.16,2.01-.31.4-.49.03-1.2.04-1.75.05-.7-.2-1.58.24-2.18.57-.24.68,1.05.78,1.36.11.45.57,1.2,1.11.84.42-.27.77-.63,1.3-.72.87-.11,1.52-.64,1.77-1.46.3-.76.65-1.41-.2-1.68-.96-.21-2.19-.39-3.08-.01-.3.13-.62.29-.94.35-.58.11-1.21-.16-1.93-.11-.32.01-.71.08-1.02.08-.36-.02.11-.72.01-.95-.05-.54-1.12-1.09-1.22-1.68-.08-.5.39-.89.56-1.33.23-.45.02-.75-.54-.94-.62-.2-1.71-.29-1.86-1.01,0-.28.75-.32,1.32-.54.55-.2,1.03-.52,1.57-.74.65-.26,1.58-.25,2.14-.7.26-.19.44-.49.28-.78-.62-.9-2.24-.8-3.24-1.16-.86-.2-1.55-.52-2.31-.86-1.32-.52-2.56-1.48-2.96-2.75-.13-.49.2-.94.46-1.47.18-.39.14-.76-.1-1.12-.27-.42-.95-1.11-.14-1.21.72.03,1.44.56,2.13.35.77-.21,1.53.04,2.23.33,1.37.45,2.82.83,4.24.88.59,0,1.2-.05,1.75.19.43.19.81.52,1.19.79.69.51,1.6.84,2.14,1.38.38.35.69.78,1.09,1.09.89.56,1.91,1.03,2.4,1.96.43.65,1.16,1.4,2.07.92.74-.34,1.69-1.21,1.62-1.73-.06-.47-.35-.88-.27-1.38.13-.8.05-1.58.22-2.42.13-.65.4-1.46.09-2.06-.38-.88-2.13-.6-2.9-.69-.15-.02-.29-.09-.4-.19l-.12-.11c-.33-.3-.17-.86.27-.94.6-.11,1.28-.06,1.86-.14.93-.15,3.37.69,3.48-.2v-.03Z"/>
  </g>
</svg>